<?xml version="1.0" encoding="UTF-8" standalone="no"?>
<svg xmlns:xlink="http://www.w3.org/1999/xlink" height="297.0px" width="238.45px" xmlns="http://www.w3.org/2000/svg">
  <g transform="matrix(1.0, 0.0, 0.0, 1.0, 0.0, 0.05)">
    <use height="127.7" transform="matrix(0.2812, 0.0, 0.0, 0.2812, 55.652, 85.802)" width="127.7" xlink:href="#sprite0"/>
    <use height="127.7" transform="matrix(0.2812, 0.0, 0.0, 0.2812, 113.452, 85.252)" width="127.7" xlink:href="#sprite0"/>
    <use height="186.4" transform="matrix(0.2812, 0.0, 0.0, 0.2812, 75.9, 100.1)" width="186.4" xlink:href="#sprite1"/>
    <use height="127.7" transform="matrix(0.2435, 0.1406, -0.1406, 0.2435, 157.0707, -0.0273)" width="127.7" xlink:href="#sprite0"/>
    <use height="127.7" transform="matrix(0.2435, 0.1406, -0.1406, 0.2435, 207.3707, 28.4227)" width="127.7" xlink:href="#sprite0"/>
    <use height="186.4" transform="matrix(0.2435, 0.1406, -0.1406, 0.2435, 167.45, 22.5)" width="186.4" xlink:href="#sprite1"/>
    <use height="127.7" transform="matrix(0.1406, 0.2435, -0.2435, 0.1406, 109.9793, 163.9727)" width="127.7" xlink:href="#sprite0"/>
    <use height="127.7" transform="matrix(0.1406, 0.2435, -0.2435, 0.1406, 139.3293, 213.7727)" width="127.7" xlink:href="#sprite0"/>
    <use height="186.4" transform="matrix(0.1406, 0.2435, -0.2435, 0.1406, 107.75, 188.65)" width="186.4" xlink:href="#sprite1"/>
    <use height="127.7" transform="matrix(0.0, 0.2812, -0.2812, 0.0, 237.898, 203.252)" width="127.7" xlink:href="#sprite0"/>
    <use height="127.7" transform="matrix(0.0, 0.2812, -0.2812, 0.0, 238.448, 261.052)" width="127.7" xlink:href="#sprite0"/>
    <use height="186.4" transform="matrix(0.0, 0.2812, -0.2812, 0.0, 223.6, 223.5)" width="186.4" xlink:href="#sprite1"/>
    <use height="248.75" transform="matrix(0.7115, 0.0, 0.0, 0.7115, 53.46, 70.366)" width="165.25" xlink:href="#shape2"/>
    <use height="127.7" transform="matrix(0.2812, 0.0, 0.0, 0.2812, 0.002, 5.952)" width="127.7" xlink:href="#sprite0"/>
    <use height="127.7" transform="matrix(0.2812, 0.0, 0.0, 0.2812, 57.752, 5.402)" width="127.7" xlink:href="#sprite0"/>
    <use height="186.4" transform="matrix(0.2812, 0.0, 0.0, 0.2812, 20.25, 20.25)" width="186.4" xlink:href="#sprite1"/>
  </g>
  <defs>
    <g id="sprite0" transform="matrix(1.0, 0.0, 0.0, 1.0, -29.35, -29.35)">
      <use height="127.7" transform="matrix(1.0, 0.0, 0.0, 1.0, 29.35, 29.35)" width="127.7" xlink:href="#shape0"/>
      <use height="36.2" transform="matrix(1.0, 0.0, 0.0, 1.0, 74.2, 77.85)" width="34.0" xlink:href="#text0"/>
    </g>
    <g id="shape0" transform="matrix(1.0, 0.0, 0.0, 1.0, -29.35, -29.35)">
      <path d="M157.05 93.2 Q157.05 119.65 138.35 138.35 119.65 157.05 93.2 157.05 66.75 157.05 48.05 138.35 29.35 119.65 29.35 93.2 29.35 66.75 48.05 48.05 66.75 29.35 93.2 29.35 119.65 29.35 138.35 48.05 157.05 66.75 157.05 93.2" fill="url(#gradient0)" fill-rule="evenodd" stroke="none"/>
      <path d="M101.8 80.75 Q101.8 87.4 97.05 92.1 92.35 96.85 85.7 96.85 79.0 96.85 74.25 92.1 69.6 87.4 69.6 80.75 69.6 74.05 74.25 69.35 79.0 64.65 85.7 64.65 92.35 64.65 97.05 69.35 101.8 74.05 101.8 80.75" fill="url(#gradient1)" fill-rule="evenodd" stroke="none"/>
    </g>
    <radialGradient cx="0" cy="0" gradientTransform="matrix(0.1024, 0.0, 0.0, 0.1024, 85.65, 77.65)" gradientUnits="userSpaceOnUse" id="gradient0" r="819.2" spreadMethod="pad">
      <stop offset="0.1843137254901961" stop-color="#42c1ff"/>
      <stop offset="1.0" stop-color="#003366"/>
    </radialGradient>
    <radialGradient cx="0" cy="0" gradientTransform="matrix(0.0202, 0.0, 0.0, 0.0202, 85.7, 80.75)" gradientUnits="userSpaceOnUse" id="gradient1" r="819.2" spreadMethod="pad">
      <stop offset="0.0" stop-color="#ffffff" stop-opacity="0.8"/>
      <stop offset="1.0" stop-color="#550000" stop-opacity="0.0"/>
    </radialGradient>
    <g id="text0" transform="matrix(1.0, 0.0, 0.0, 1.0, -3.6, -19.9)">
      <g transform="matrix(1.0, 0.0, 0.0, 1.0, 0.0, 0.0)">
        <use fill="#003366" height="36.2" transform="matrix(0.0664, 0.0, 0.0, 0.0664, 0.0, 55.0)" width="34.0" xlink:href="#font_Sony_Sketch_EF_H0"/>
      </g>
    </g>
    <g id="font_Sony_Sketch_EF_H0">
      <path d="M551.5 0.0 L551.5 -500.0 452.5 -500.0 452.5 -285.5 153.5 -285.5 153.5 -500.0 54.0 -500.0 54.0 0.0 153.5 0.0 153.5 -213.5 452.5 -213.5 452.5 0.0 551.5 0.0" fill-rule="evenodd" stroke="none"/>
    </g>
    <g id="sprite1" transform="matrix(1.0, 0.0, 0.0, 1.0, 0.0, 0.0)">
      <use height="186.4" transform="matrix(1.0, 0.0, 0.0, 1.0, 0.0, 0.0)" width="186.4" xlink:href="#shape1"/>
      <use height="36.2" transform="matrix(1.0, 0.0, 0.0, 1.0, 78.55, 77.85)" width="32.8" xlink:href="#text1"/>
    </g>
    <g id="shape1" transform="matrix(1.0, 0.0, 0.0, 1.0, 0.0, 0.0)">
      <path d="M159.1 27.3 Q186.4 54.6 186.4 93.2 186.4 131.8 159.1 159.1 131.8 186.4 93.2 186.4 54.6 186.4 27.3 159.1 0.0 131.8 0.0 93.2 0.0 54.6 27.3 27.3 54.6 0.0 93.2 0.0 131.8 0.0 159.1 27.3" fill="url(#gradient2)" fill-rule="evenodd" stroke="none"/>
      <path d="M105.75 75.0 Q105.75 84.75 98.85 91.6 92.0 98.5 82.25 98.5 72.5 98.5 65.6 91.6 58.75 84.75 58.75 75.0 58.75 65.25 65.6 58.35 72.5 51.5 82.25 51.5 92.0 51.5 98.85 58.35 105.75 65.25 105.75 75.0" fill="url(#gradient3)" fill-rule="evenodd" stroke="none"/>
    </g>
    <radialGradient cx="0" cy="0" gradientTransform="matrix(0.1494, 0.0, 0.0, 0.1494, 82.2, 70.5)" gradientUnits="userSpaceOnUse" id="gradient2" r="819.2" spreadMethod="pad">
      <stop offset="0.1843137254901961" stop-color="#ff0000"/>
      <stop offset="1.0" stop-color="#550000"/>
    </radialGradient>
    <radialGradient cx="0" cy="0" gradientTransform="matrix(0.0295, 0.0, 0.0, 0.0295, 82.25, 75.0)" gradientUnits="userSpaceOnUse" id="gradient3" r="819.2" spreadMethod="pad">
      <stop offset="0.0" stop-color="#ffffff" stop-opacity="0.8"/>
      <stop offset="1.0" stop-color="#550000" stop-opacity="0.0"/>
    </radialGradient>
    <g id="text1" transform="matrix(1.0, 0.0, 0.0, 1.0, -3.6, -19.9)">
      <g transform="matrix(1.0, 0.0, 0.0, 1.0, 0.0, 0.0)">
        <use fill="#003366" height="36.2" transform="matrix(0.0664, 0.0, 0.0, 0.0664, 0.0, 55.0)" width="32.8" xlink:href="#font_Sony_Sketch_EF_O0"/>
      </g>
    </g>
    <g id="font_Sony_Sketch_EF_O0">
      <path d="M435.0 -131.5 L435.0 -131.5 Q435.0 -99.0 414.0 -86.0 393.0 -73.0 347.0 -73.0 L242.5 -73.0 Q194.5 -73.0 176.0 -86.0 153.5 -102.5 153.5 -133.5 L153.5 -364.5 Q153.5 -399.5 174.0 -413.0 194.5 -427.0 242.5 -427.0 L347.0 -427.0 Q394.0 -427.0 414.5 -413.0 435.0 -399.5 435.0 -364.5 L435.0 -131.5 M533.0 -113.5 L533.0 -385.5 Q533.0 -500.0 370.5 -500.0 L219.0 -500.0 Q140.0 -500.0 102.0 -474.0 54.0 -442.5 54.0 -385.5 L54.0 -112.5 Q54.0 -55.0 101.0 -25.0 140.0 0.0 219.0 0.0 L369.5 0.0 Q533.0 0.0 533.0 -113.5" fill-rule="evenodd" stroke="none"/>
    </g>
    <g id="shape2" transform="matrix(1.0, 0.0, 0.0, 1.0, 92.4, 109.75)">
      <path d="M-92.35 -106.6 Q-92.5 -107.75 -91.8 -108.65 -91.05 -109.55 -89.9 -109.7 -88.8 -109.85 -87.9 -109.15 -86.95 -108.5 -86.8 -107.35 -86.65 -106.2 -87.4 -105.25 -88.1 -104.3 -89.2 -104.15 -90.35 -104.0 -91.3 -104.75 -92.2 -105.45 -92.35 -106.6" fill="#000000" fill-rule="evenodd" stroke="none"/>
      <path d="M-87.8 -101.8 Q-87.1 -102.7 -85.95 -102.85 -84.8 -103.0 -83.9 -102.3 -82.95 -101.6 -82.8 -100.45 -82.65 -99.3 -83.4 -98.4 -84.1 -97.45 -85.25 -97.3 -86.4 -97.15 -87.3 -97.9 -88.2 -98.6 -88.35 -99.75 -88.5 -100.9 -87.8 -101.8" fill="#000000" fill-rule="evenodd" stroke="none"/>
      <path d="M-83.75 -94.7 Q-83.05 -95.6 -81.9 -95.75 -80.75 -95.9 -79.85 -95.2 -78.9 -94.5 -78.75 -93.35 -78.6 -92.2 -79.35 -91.3 -80.05 -90.35 -81.2 -90.2 -82.35 -90.05 -83.25 -90.8 -84.15 -91.5 -84.3 -92.65 -84.45 -93.8 -83.75 -94.7" fill="#000000" fill-rule="evenodd" stroke="none"/>
      <path d="M-74.75 -86.35 Q-74.6 -85.2 -75.35 -84.3 -76.05 -83.35 -77.2 -83.2 -78.35 -83.05 -79.25 -83.8 -80.15 -84.5 -80.3 -85.65 -80.45 -86.8 -79.75 -87.7 -79.05 -88.6 -77.9 -88.75 -76.75 -88.9 -75.85 -88.2 -74.9 -87.5 -74.75 -86.35" fill="#000000" fill-rule="evenodd" stroke="none"/>
      <path d="M55.55 -100.5 Q56.65 -100.0 57.1 -98.9 57.45 -97.9 57.05 -96.85 56.65 -95.8 55.6 -95.35 54.5 -94.9 53.45 -95.35 52.3 -95.8 51.85 -96.8 51.4 -97.85 51.9 -99.0 52.35 -100.05 53.45 -100.5 54.5 -100.95 55.55 -100.5" fill="#000000" fill-rule="evenodd" stroke="none"/>
      <path d="M51.5 -91.25 Q51.05 -90.1 49.95 -89.65 L47.8 -89.7 Q46.75 -90.15 46.3 -91.25 45.85 -92.3 46.35 -93.35 46.75 -94.4 47.85 -94.85 48.95 -95.25 50.0 -94.85 51.0 -94.4 51.45 -93.3 51.9 -92.25 51.5 -91.25" fill="#000000" fill-rule="evenodd" stroke="none"/>
      <path d="M42.05 -89.1 Q43.1 -89.55 44.2 -89.1 45.2 -88.65 45.65 -87.6 46.1 -86.55 45.65 -85.45 45.25 -84.35 44.15 -83.9 L42.0 -84.0 Q40.95 -84.4 40.5 -85.45 40.05 -86.55 40.55 -87.6 40.95 -88.65 42.05 -89.1" fill="#000000" fill-rule="evenodd" stroke="none"/>
      <path d="M36.3 -78.25 Q35.2 -78.75 34.75 -79.8 34.3 -80.85 34.8 -81.95 35.25 -82.95 36.3 -83.4 37.4 -83.85 38.45 -83.4 39.5 -83.0 39.95 -81.9 40.4 -80.85 39.9 -79.8 39.5 -78.7 38.45 -78.25 37.35 -77.8 36.3 -78.25" fill="#000000" fill-rule="evenodd" stroke="none"/>
      <path d="M-23.5 6.0 Q-22.5 6.4 -22.05 7.45 -21.5 8.5 -22.0 9.6 -22.4 10.65 -23.55 11.1 L-25.65 11.15 Q-26.7 10.7 -27.2 9.6 -27.6 8.55 -27.15 7.45 -26.75 6.4 -25.65 5.95 L-23.5 6.0" fill="#000000" fill-rule="evenodd" stroke="none"/>
      <path d="M-23.5 13.9 Q-22.4 14.35 -22.0 15.4 -21.5 16.45 -22.0 17.55 -22.4 18.6 -23.5 19.05 -24.6 19.5 -25.65 19.05 -26.75 18.6 -27.15 17.5 -27.55 16.45 -27.15 15.35 -26.65 14.3 -25.6 13.9 -24.55 13.45 -23.5 13.9" fill="#000000" fill-rule="evenodd" stroke="none"/>
      <path d="M-27.15 25.65 Q-27.6 24.6 -27.2 23.55 -26.7 22.45 -25.65 22.05 L-23.55 22.1 Q-22.45 22.5 -22.0 23.55 -21.55 24.65 -22.0 25.7 -22.45 26.8 -23.55 27.2 L-25.7 27.25 Q-26.8 26.75 -27.15 25.65" fill="#000000" fill-rule="evenodd" stroke="none"/>
      <path d="M-23.6 35.25 L-25.75 35.3 Q-26.85 34.85 -27.2 33.75 -27.65 32.65 -27.2 31.65 -26.75 30.55 -25.7 30.1 L-23.6 30.15 Q-22.5 30.55 -22.05 31.6 -21.6 32.7 -22.05 33.75 -22.5 34.85 -23.6 35.25" fill="#000000" fill-rule="evenodd" stroke="none"/>
      <path d="M68.35 138.45 Q67.45 137.75 67.3 136.55 67.15 135.4 67.8 134.5 68.5 133.6 69.7 133.45 70.85 133.3 71.8 134.0 72.7 134.65 72.85 135.8 72.95 137.05 72.25 137.9 71.6 138.75 70.45 138.95 69.3 139.2 68.35 138.45" fill="#000000" fill-rule="evenodd" stroke="none"/>
      <path d="M62.1 131.4 Q63.2 131.3 64.15 131.95 65.05 132.7 65.15 133.8 65.3 135.0 64.6 135.85 63.9 136.8 62.75 136.95 61.6 137.15 60.7 136.35 59.8 135.7 59.65 134.55 59.45 133.35 60.2 132.45 60.95 131.5 62.1 131.4" fill="#000000" fill-rule="evenodd" stroke="none"/>
      <path d="M56.25 129.8 Q57.15 130.55 57.3 131.65 57.45 132.8 56.7 133.7 56.0 134.65 54.9 134.8 53.75 135.0 52.8 134.25 51.85 133.55 51.75 132.35 51.65 131.2 52.25 130.25 53.05 129.35 54.2 129.25 55.35 129.15 56.25 129.8" fill="#000000" fill-rule="evenodd" stroke="none"/>
      <path d="M44.5 128.2 Q45.25 127.2 46.4 127.2 47.55 127.0 48.45 127.7 49.4 128.4 49.5 129.5 49.7 130.7 48.9 131.55 48.3 132.5 47.1 132.7 45.95 132.85 45.05 132.15 44.15 131.4 44.0 130.25 43.85 129.05 44.5 128.2" fill="#000000" fill-rule="evenodd" stroke="none"/>
    </g>
  </defs>
</svg>
